<svg id="visual" viewBox="0 0 900 600" width="900" height="600" xmlns="http://www.w3.org/2000/svg" xmlns:xlink="http://www.w3.org/1999/xlink" version="1.1"><rect x="0" y="0" width="900" height="600" fill="#fff"></rect><defs><linearGradient id="grad1_0" x1="33.3%" y1="100%" x2="100%" y2="0%"><stop offset="20%" stop-color="#66d3d1" stop-opacity="1"></stop><stop offset="80%" stop-color="#66d3d1" stop-opacity="1"></stop></linearGradient></defs><defs><linearGradient id="grad1_1" x1="33.3%" y1="100%" x2="100%" y2="0%"><stop offset="20%" stop-color="#66d3d1" stop-opacity="1"></stop><stop offset="80%" stop-color="#ffffff" stop-opacity="1"></stop></linearGradient></defs><defs><linearGradient id="grad2_0" x1="0%" y1="100%" x2="66.7%" y2="0%"><stop offset="20%" stop-color="#66d3d1" stop-opacity="1"></stop><stop offset="80%" stop-color="#66d3d1" stop-opacity="1"></stop></linearGradient></defs><defs><linearGradient id="grad2_1" x1="0%" y1="100%" x2="66.7%" y2="0%"><stop offset="20%" stop-color="#ffffff" stop-opacity="1"></stop><stop offset="80%" stop-color="#66d3d1" stop-opacity="1"></stop></linearGradient></defs><g transform="translate(900, 600)"><path d="M-216.3 0C-213.5 -34.1 -210.7 -68.2 -182.9 -75.8C-155.1 -83.3 -102.3 -64.3 -86.3 -86.3C-70.2 -108.3 -91 -171.3 -82.8 -199.9C-74.5 -228.4 -37.3 -222.4 0 -216.3L0 0Z" fill="#b9e9e8"></path><path d="M-108.2 0C-106.8 -17.1 -105.4 -34.1 -91.5 -37.9C-77.6 -41.7 -51.1 -32.1 -43.1 -43.1C-35.1 -54.1 -45.5 -85.7 -41.4 -99.9C-37.3 -114.2 -18.6 -111.2 0 -108.2L0 0Z" fill="#66d3d1"></path></g><g transform="translate(0, 0)"><path d="M216.3 0C201.4 24 186.4 48 176.5 73.1C166.5 98.2 161.5 124.4 147.1 147.1C132.7 169.8 108.9 188.9 82.8 199.9C56.7 210.8 28.4 213.6 0 216.3L0 0Z" fill="#b9e9e8"></path><path d="M108.2 0C100.7 12 93.2 24 88.2 36.5C83.2 49.1 80.7 62.2 73.5 73.5C66.3 84.9 54.4 94.5 41.4 99.9C28.4 105.4 14.2 106.8 0 108.2L0 0Z" fill="#66d3d1"></path></g></svg>